<svg width="17" height="20" viewBox="0 0 17 20" fill="none" xmlns="http://www.w3.org/2000/svg">
<path d="M13.9751 14.5229C13.7407 14.2885 13.609 13.9706 13.609 13.639V8.71795C13.609 5.90416 12.4099 3.75311 10.1599 3.05655C9.65447 2.90009 9.25 2.43146 9.25 1.84084V1.53846C9.25 1.40153 9.17131 1.21289 8.94877 1.03202C8.7266 0.851453 8.44178 0.75 8.20513 0.75C7.96564 0.75 7.66536 0.853587 7.42861 1.03966C7.18947 1.22762 7.11364 1.4156 7.11364 1.53846V1.84052C7.11364 2.43161 6.70853 2.90038 6.20272 3.05651C3.95668 3.74978 2.80128 5.88271 2.80128 8.71795V13.639C2.80128 13.9706 2.66959 14.2885 2.43517 14.5229M13.9751 14.5229H2.43517M13.9751 14.5229L15.6252 16.1731H0.785021M13.9751 14.5229L0.785021 16.1731M2.43517 14.5229L0.785021 16.1731M2.43517 14.5229L0.785021 16.1731M7.14123 18.6987H9.26618C9.0289 19.032 8.63937 19.25 8.20513 19.25C7.76457 19.25 7.37645 19.032 7.14123 18.6987Z" stroke="black" stroke-width="1.5"/>
</svg>
