<svg width="24" height="24" viewBox="0 0 24 24" fill="none" xmlns="http://www.w3.org/2000/svg">
<path fill-rule="evenodd" clip-rule="evenodd" d="M11.628 3.22581L12.6444 6.17805L8.71012 5.95435L8.15518 4.35673L11.628 3.22581ZM12.7306 2.74218L13.9389 6.25166L14.4466 6.28053V4.07058C14.4466 3.46307 14.9391 2.97058 15.5466 2.97058H19.2501C19.8576 2.97058 20.3501 3.46307 20.3501 4.07058V6.61619L21.3065 6.67057C21.784 6.69772 22.1311 7.13493 22.0493 7.60611L20.7296 15.2083C20.663 15.5916 20.3304 15.8715 19.9414 15.8715H7.81133L8.05094 17.1076H19.0151C19.0597 17.1076 19.1031 17.1125 19.1449 17.1217C20.4532 17.1787 21.4964 18.2575 21.4964 19.5799C21.4964 20.9388 20.3948 22.0404 19.0359 22.0404C17.677 22.0404 16.5753 20.9388 16.5753 19.5799C16.5753 19.1142 16.7047 18.6788 16.9294 18.3076H10.4589C10.6836 18.6788 10.813 19.1142 10.813 19.5799C10.813 20.9388 9.71133 22.0404 8.35241 22.0404C6.99348 22.0404 5.89186 20.9388 5.89186 19.5799C5.89186 18.7553 6.29744 18.0255 6.91998 17.579L6.49481 15.3857L6.49177 15.3687L5.03796 6.50972L4.47087 4.48366L2.6 4.48367C2.26863 4.48367 2 4.21504 2 3.88367C2 3.5523 2.26863 3.28367 2.6 3.28367L4.77428 3.28366C5.13306 3.28366 5.44797 3.52253 5.54467 3.86803L6.08688 5.8052L7.4142 5.88067L6.98816 4.65416C6.78606 4.07236 7.10101 3.438 7.68664 3.24729L11.3499 2.05434C11.9207 1.86845 12.5352 2.17456 12.7306 2.74218ZM19.1501 6.54796V4.17058H15.6466V6.34876L19.1501 6.54796ZM6.33798 7.02141L7.59341 14.6715H19.6048L20.7902 7.84315L6.33798 7.02141ZM8.35241 20.8404C9.04859 20.8404 9.61295 20.276 9.61295 19.5799C9.61295 18.8837 9.04859 18.3193 8.35241 18.3193C7.65623 18.3193 7.09186 18.8837 7.09186 19.5799C7.09186 20.276 7.65623 20.8404 8.35241 20.8404ZM20.2964 19.5799C20.2964 20.276 19.7321 20.8404 19.0359 20.8404C18.3397 20.8404 17.7753 20.276 17.7753 19.5799C17.7753 18.8837 18.3397 18.3193 19.0359 18.3193C19.7321 18.3193 20.2964 18.8837 20.2964 19.5799Z" fill="white"/>
</svg>
